<svg xmlns="http://www.w3.org/2000/svg" viewBox="0 0 256 256" width="256" height="256" role="img" aria-label="Uzor">
  <title>Uzor</title>
  <path fill="currentColor" fill-rule="evenodd" d="M125.2,14.36 C125.05,14.42 124.58,14.47 124.16,14.47 C123.35,14.49 122.33,14.68 121.1,15.07 C120.68,15.2 120.17,15.3 119.96,15.3 C119.12,15.31 115.81,16.37 115.31,16.79 C115.17,16.92 114.6,17.22 114.06,17.47 C113.55,17.71 112.72,18.15 112.27,18.46 C111.8,18.76 111.31,19.02 111.18,19.02 C111.03,19.02 110.63,19.32 110.26,19.67 C109.88,20.04 109.35,20.45 109.09,20.58 C107.74,21.28 105.25,23.72 104.88,24.68 C104.83,24.84 104.5,25.21 104.18,25.52 C103.86,25.83 103.37,26.46 103.09,26.92 C102.83,27.39 102.54,27.81 102.46,27.86 C102.32,27.95 101.67,29.35 101.67,29.57 C101.67,29.65 101.44,30.03 101.18,30.4 C100.53,31.31 99.87,33.12 99.74,34.34 C99.67,34.87 99.5,35.5 99.33,35.75 C99.07,36.15 99.04,37.19 98.99,54.3 C98.96,66.88 98.88,72.56 98.77,72.87 C98.67,73.13 98.59,73.55 98.59,73.81 C98.59,74.36 98.39,74.8 97.84,75.46 C97.63,75.72 97.45,76.06 97.45,76.24 C97.45,76.44 97.1,76.81 96.5,77.25 C95.96,77.62 95.46,78.09 95.36,78.28 C95.19,78.67 93.73,79.66 92.67,80.12 C92.32,80.28 91.88,80.55 91.72,80.75 C91.54,80.93 90.96,81.3 90.41,81.56 C89.87,81.82 89.32,82.16 89.19,82.3 C89.08,82.45 88.67,82.72 88.31,82.9 C87.94,83.08 87.47,83.4 87.25,83.6 C87.02,83.81 86.34,84.25 85.71,84.59 C85.09,84.91 84.39,85.35 84.17,85.54 C83.65,86.01 82.82,86.43 82.43,86.43 C82.27,86.43 82.04,86.58 81.93,86.78 C81.82,86.95 81.3,87.29 80.8,87.54 C80.29,87.76 79.74,88.12 79.58,88.33 C79.42,88.54 79.18,88.7 79.05,88.7 C78.92,88.7 78.25,89.09 77.55,89.56 C76.11,90.55 74.31,91.62 74.12,91.62 C74.04,91.62 73.78,91.8 73.52,91.99 C73.28,92.2 72.74,92.58 72.34,92.82 C71.93,93.06 71.25,93.5 70.81,93.81 C70.39,94.12 69.86,94.38 69.65,94.38 C69.42,94.38 69.16,94.54 69.0,94.78 C68.85,94.99 68.33,95.36 67.83,95.61 C67.35,95.83 66.58,96.3 66.15,96.64 C65.73,96.98 64.98,97.45 64.49,97.68 C64.01,97.91 63.55,98.18 63.51,98.26 C63.38,98.48 61.88,99.24 61.59,99.24 C61.46,99.24 61.24,99.4 61.06,99.59 C60.9,99.77 60.15,100.32 59.42,100.79 C58.69,101.26 58.06,101.8 58.0,101.98 C57.95,102.14 57.66,102.48 57.36,102.7 C57.06,102.93 56.55,103.64 56.16,104.39 C55.5,105.67 55.5,105.67 55.48,113.27 C55.48,124.11 55.4,123.51 56.93,124.79 C57.66,125.41 57.69,125.41 58.92,125.36 C60.13,125.31 61.19,125.02 61.4,124.68 C61.46,124.58 62.06,124.22 62.76,123.87 C63.46,123.53 64.25,123.06 64.53,122.81 C64.8,122.59 65.35,122.3 65.76,122.18 C66.18,122.05 66.76,121.73 67.07,121.45 C67.39,121.18 67.77,120.95 67.93,120.95 C68.08,120.95 68.64,120.66 69.16,120.29 C69.68,119.91 70.41,119.52 70.77,119.4 C71.11,119.27 71.69,118.88 72.03,118.52 C72.42,118.12 72.81,117.87 73.05,117.87 C73.5,117.87 74.75,117.21 75.17,116.74 C75.33,116.56 75.59,116.41 75.74,116.41 C75.89,116.41 76.14,116.27 76.32,116.07 C76.73,115.62 77.41,115.28 77.91,115.28 C78.19,115.28 78.38,115.15 78.53,114.84 C78.72,114.44 78.92,114.29 79.95,113.84 C80.18,113.74 80.6,113.5 80.89,113.3 C81.31,113.04 81.51,113.01 81.78,113.12 C82.32,113.37 82.55,113.21 82.55,112.59 C82.55,112.09 82.61,111.99 83.16,111.78 C83.49,111.63 84.02,111.33 84.33,111.1 C85.35,110.3 86.5,109.61 86.78,109.61 C86.92,109.61 87.33,109.4 87.67,109.14 C88.02,108.86 88.48,108.52 88.7,108.34 C88.93,108.18 89.29,107.94 89.51,107.83 C89.74,107.71 90.16,107.4 90.44,107.16 C90.73,106.92 91.23,106.64 91.56,106.54 C91.88,106.45 92.41,106.2 92.74,105.99 C93.06,105.78 93.5,105.49 93.73,105.35 C93.95,105.2 94.42,104.88 94.78,104.62 C95.14,104.37 96.04,103.81 96.81,103.39 C97.57,102.95 98.39,102.41 98.65,102.2 C98.93,101.98 99.54,101.62 100.03,101.41 C100.52,101.18 101.18,100.81 101.49,100.57 C102.69,99.66 103.55,99.07 104.18,98.73 C104.54,98.54 105.1,98.17 105.44,97.89 C105.78,97.63 106.35,97.31 106.71,97.18 C107.06,97.07 107.74,96.68 108.2,96.34 C108.67,96.0 109.3,95.57 109.61,95.43 C109.92,95.27 110.35,95.01 110.56,94.85 C110.81,94.65 111.21,94.54 111.68,94.54 C112.3,94.54 112.38,94.5 112.2,94.29 C111.97,94.02 112.23,93.57 112.61,93.57 C112.72,93.57 113.17,93.29 113.61,92.93 C114.05,92.59 114.7,92.22 115.04,92.09 C115.83,91.83 116.12,91.64 115.99,91.43 C115.94,91.34 116.37,90.83 116.93,90.28 C117.89,89.37 119.49,86.66 119.49,86.0 C119.49,85.9 119.65,85.62 119.85,85.38 C120.51,84.54 120.51,84.3 120.64,61.8 C120.69,49.68 120.81,39.57 120.9,39.04 C120.98,38.44 121.21,37.82 121.49,37.43 C121.73,37.09 121.92,36.67 121.92,36.51 C121.92,36.22 122.85,35.39 123.17,35.39 C123.25,35.39 123.46,35.24 123.64,35.05 C124.31,34.3 126.43,33.61 128.0,33.61 C129.57,33.61 131.69,34.3 132.36,35.05 C132.54,35.24 132.75,35.39 132.83,35.39 C133.15,35.39 134.08,36.22 134.08,36.51 C134.08,36.67 134.27,37.09 134.51,37.43 C134.79,37.82 135.02,38.44 135.1,39.04 C135.19,39.57 135.31,49.68 135.36,61.8 C135.49,84.3 135.49,84.54 136.15,85.38 C136.35,85.62 136.51,85.9 136.51,86.0 C136.51,86.66 138.11,89.37 139.07,90.28 C139.63,90.83 140.06,91.34 140.01,91.43 C139.88,91.64 140.17,91.83 140.96,92.09 C141.3,92.22 141.95,92.59 142.39,92.93 C142.83,93.29 143.28,93.57 143.39,93.57 C143.77,93.57 144.03,94.02 143.8,94.29 C143.62,94.5 143.7,94.54 144.32,94.54 C144.79,94.54 145.19,94.65 145.44,94.85 C145.65,95.01 146.08,95.27 146.39,95.43 C146.7,95.57 147.33,96.0 147.8,96.34 C148.26,96.68 148.94,97.07 149.29,97.18 C149.65,97.31 150.22,97.63 150.56,97.89 C150.9,98.17 151.46,98.54 151.82,98.73 C152.45,99.07 153.31,99.66 154.51,100.57 C154.82,100.81 155.48,101.18 155.97,101.41 C156.46,101.62 157.07,101.98 157.35,102.2 C157.61,102.41 158.43,102.95 159.19,103.39 C159.96,103.81 160.86,104.37 161.22,104.62 C161.58,104.88 162.05,105.2 162.27,105.35 C162.5,105.49 162.94,105.78 163.26,105.99 C163.59,106.2 164.12,106.45 164.44,106.54 C164.77,106.64 165.27,106.92 165.56,107.16 C165.84,107.4 166.26,107.71 166.49,107.83 C166.71,107.94 167.07,108.18 167.3,108.34 C167.52,108.52 167.98,108.86 168.33,109.14 C168.67,109.4 169.08,109.61 169.22,109.61 C169.5,109.61 170.65,110.3 171.67,111.1 C171.98,111.33 172.51,111.63 172.85,111.78 C173.39,111.99 173.45,112.09 173.45,112.59 C173.45,113.21 173.68,113.37 174.22,113.12 C174.49,113.01 174.69,113.04 175.11,113.3 C175.4,113.5 175.82,113.74 176.05,113.84 C177.08,114.29 177.28,114.44 177.47,114.84 C177.62,115.15 177.81,115.28 178.09,115.28 C178.59,115.28 179.27,115.62 179.68,116.07 C179.86,116.27 180.11,116.41 180.26,116.41 C180.41,116.41 180.67,116.56 180.83,116.74 C181.25,117.21 182.5,117.87 182.95,117.87 C183.19,117.87 183.58,118.12 183.97,118.52 C184.31,118.88 184.89,119.27 185.23,119.4 C185.59,119.52 186.32,119.91 186.84,120.29 C187.36,120.66 187.92,120.95 188.07,120.95 C188.23,120.95 188.61,121.18 188.93,121.45 C189.24,121.73 189.82,122.05 190.24,122.18 C190.65,122.3 191.2,122.59 191.47,122.81 C191.75,123.06 192.54,123.53 193.24,123.87 C193.94,124.22 194.54,124.58 194.6,124.68 C194.81,125.02 195.87,125.31 197.08,125.36 C198.31,125.41 198.34,125.41 199.07,124.79 C200.6,123.51 200.52,124.11 200.52,113.27 C200.5,105.67 200.5,105.67 199.84,104.39 C199.45,103.64 198.94,102.93 198.64,102.7 C198.34,102.48 198.05,102.14 198.0,101.98 C197.94,101.8 197.31,101.26 196.58,100.79 C195.85,100.32 195.1,99.77 194.94,99.59 C194.76,99.4 194.54,99.24 194.41,99.24 C194.12,99.24 192.62,98.48 192.49,98.26 C192.45,98.18 191.99,97.91 191.51,97.68 C191.02,97.45 190.27,96.98 189.85,96.64 C189.42,96.3 188.65,95.83 188.17,95.61 C187.67,95.36 187.15,94.99 187.0,94.78 C186.84,94.54 186.58,94.38 186.35,94.38 C186.14,94.38 185.61,94.12 185.19,93.81 C184.75,93.5 184.07,93.06 183.66,92.82 C183.26,92.58 182.72,92.2 182.48,91.99 C182.22,91.8 181.96,91.62 181.88,91.62 C181.69,91.62 179.89,90.55 178.45,89.56 C177.75,89.09 177.08,88.7 176.95,88.7 C176.82,88.7 176.58,88.54 176.42,88.33 C176.26,88.12 175.71,87.76 175.2,87.54 C174.7,87.29 174.18,86.95 174.07,86.78 C173.96,86.58 173.73,86.43 173.57,86.43 C173.18,86.43 172.35,86.01 171.83,85.54 C171.61,85.35 170.93,84.91 170.29,84.59 C169.68,84.25 168.98,83.81 168.75,83.6 C168.53,83.4 168.06,83.08 167.69,82.9 C167.33,82.72 166.92,82.45 166.81,82.3 C166.68,82.16 166.13,81.82 165.59,81.56 C165.04,81.3 164.46,80.93 164.28,80.75 C164.12,80.55 163.68,80.28 163.33,80.12 C162.27,79.66 160.81,78.67 160.64,78.28 C160.54,78.09 160.04,77.62 159.5,77.25 C158.9,76.81 158.55,76.44 158.55,76.24 C158.55,76.06 158.37,75.72 158.16,75.46 C157.61,74.8 157.41,74.36 157.41,73.81 C157.41,73.55 157.33,73.13 157.23,72.87 C157.12,72.56 157.04,66.88 157.01,54.3 C156.96,37.19 156.93,36.15 156.67,35.75 C156.5,35.5 156.33,34.87 156.26,34.34 C156.13,33.12 155.47,31.31 154.82,30.4 C154.56,30.03 154.33,29.65 154.33,29.57 C154.33,29.35 153.68,27.95 153.54,27.86 C153.46,27.81 153.17,27.39 152.91,26.92 C152.63,26.46 152.14,25.83 151.82,25.52 C151.5,25.21 151.17,24.84 151.12,24.68 C150.75,23.72 148.26,21.28 146.91,20.58 C146.65,20.45 146.12,20.04 145.74,19.67 C145.37,19.32 144.97,19.02 144.82,19.02 C144.69,19.02 144.2,18.76 143.73,18.46 C143.28,18.15 142.45,17.71 141.94,17.47 C141.4,17.22 140.83,16.92 140.69,16.79 C140.17,16.35 136.88,15.31 135.97,15.3 C135.71,15.3 135.37,15.22 135.19,15.12 C134.14,14.57 126.2,13.95 125.2,14.36 Z M79.95,38.26 C79.74,38.31 79.27,38.58 78.92,38.89 C78.56,39.2 77.88,39.64 77.43,39.85 C76.96,40.07 76.1,40.58 75.51,40.98 C74.93,41.39 74.01,41.89 73.47,42.1 C72.94,42.33 72.16,42.8 71.74,43.17 C71.33,43.52 70.8,43.87 70.57,43.93 C70.34,43.98 69.86,44.25 69.5,44.55 C69.14,44.84 68.46,45.26 67.99,45.5 C67.52,45.74 66.7,46.26 66.15,46.65 C65.61,47.06 64.9,47.46 64.54,47.56 C64.2,47.67 63.76,47.93 63.57,48.13 C63.36,48.34 63.12,48.52 63.0,48.52 C62.91,48.52 62.39,48.86 61.87,49.26 C61.33,49.68 60.56,50.19 60.1,50.4 C58.98,50.93 57.69,51.69 56.28,52.66 C55.61,53.12 54.92,53.54 54.72,53.6 C54.54,53.67 54.28,53.81 54.19,53.94 C54.07,54.07 53.86,54.19 53.7,54.19 C53.54,54.19 53.38,54.3 53.31,54.43 C53.26,54.56 53.02,54.77 52.78,54.87 C52.53,54.98 51.81,55.45 51.17,55.92 C50.54,56.39 49.88,56.78 49.7,56.78 C49.52,56.78 48.87,57.17 48.26,57.62 C46.51,58.97 44.16,60.22 43.62,60.09 C43.25,60.01 43.17,60.05 43.17,60.31 C43.17,60.64 41.87,61.61 39.85,62.81 C39.1,63.26 38.76,63.38 38.36,63.31 C37.87,63.23 37.82,63.26 37.82,63.63 C37.82,64.1 37.16,64.72 36.64,64.72 C36.18,64.72 35.29,65.29 34.32,66.2 C33.88,66.6 33.25,67.07 32.94,67.23 C32.64,67.39 32.13,67.72 31.81,67.98 C31.5,68.22 31.05,68.48 30.8,68.53 C30.3,68.66 30.12,68.85 29.98,69.45 C29.91,69.73 29.72,69.94 29.39,70.04 C29.09,70.15 28.91,70.33 28.91,70.52 C28.91,70.68 28.7,70.98 28.44,71.15 C28.2,71.35 27.48,72.26 26.87,73.18 C26.25,74.1 25.52,75.11 25.25,75.42 C24.95,75.72 24.61,76.24 24.47,76.55 C23.92,77.7 23.67,78.06 23.37,78.14 C23.11,78.2 23.06,78.32 23.14,78.69 C23.2,79.0 23.12,79.37 22.93,79.76 C22.54,80.54 22.43,80.84 21.41,84.09 C21.21,84.7 20.97,85.37 20.87,85.54 C20.42,86.32 20.32,91.69 20.32,117.4 C20.32,143.38 20.32,143.38 21.07,144.08 C21.83,144.77 21.83,144.77 23.11,144.77 C24.44,144.77 25.46,144.37 26.69,143.36 C26.95,143.15 27.22,142.99 27.3,142.99 C27.43,142.99 28.52,142.32 30.61,140.93 C31.06,140.64 31.58,140.4 31.78,140.4 C31.95,140.4 32.49,140.15 32.94,139.85 C33.88,139.21 35.47,138.45 35.86,138.45 C36.01,138.45 36.2,138.29 36.28,138.1 C36.38,137.88 36.74,137.63 37.12,137.48 C37.5,137.35 37.97,137.07 38.18,136.88 C38.39,136.7 38.78,136.43 39.04,136.3 C39.68,135.97 40.12,135.47 40.64,134.47 C41.08,133.62 41.08,133.62 41.06,114.14 C41.06,94.67 41.06,94.67 41.42,94.08 C41.68,93.66 41.77,93.24 41.79,92.51 C41.81,91.65 41.92,91.28 42.65,89.81 C43.12,88.88 43.49,88.01 43.49,87.88 C43.49,87.28 47.43,82.72 47.97,82.71 C48.06,82.71 48.34,82.56 48.58,82.37 C48.82,82.19 49.12,82.08 49.25,82.12 C49.57,82.24 49.97,82.08 49.97,81.82 C49.97,81.33 52.23,79.82 53.17,79.68 C53.59,79.61 53.99,79.39 54.43,78.93 C54.79,78.59 55.32,78.19 55.63,78.06 C55.94,77.93 56.55,77.55 57.01,77.21 C57.46,76.89 58.27,76.36 58.81,76.06 C59.34,75.76 60.17,75.24 60.65,74.9 C61.14,74.56 61.61,74.28 61.71,74.28 C61.79,74.28 62.19,74.01 62.6,73.67 C63.0,73.33 64.19,72.63 65.21,72.13 C66.45,71.53 67.2,71.04 67.44,70.72 C67.65,70.46 67.91,70.23 68.03,70.23 C68.29,70.23 69.99,69.34 70.55,68.9 C71.98,67.82 74.33,66.5 74.85,66.5 C74.96,66.5 75.17,66.32 75.32,66.1 C75.48,65.84 75.74,65.69 75.98,65.69 C76.21,65.69 76.66,65.45 76.99,65.16 C78.17,64.15 78.71,63.85 79.26,63.88 C79.61,63.91 79.79,63.85 79.79,63.7 C79.79,63.34 80.86,62.42 81.43,62.31 C81.7,62.26 82.03,62.06 82.12,61.88 C82.22,61.72 82.64,61.16 83.05,60.65 C83.47,60.15 84.07,59.16 84.41,58.47 C85.01,57.2 85.01,57.2 84.88,49.02 C84.77,41.29 84.75,40.83 84.46,40.59 C84.3,40.45 84.04,39.94 83.91,39.47 C83.76,38.99 83.52,38.57 83.34,38.45 C82.98,38.27 80.57,38.13 79.95,38.26 Z M173.29,38.29 C172.45,38.47 172.37,38.55 172.09,39.49 C171.96,39.94 171.7,40.45 171.54,40.59 C171.25,40.83 171.23,41.29 171.12,49.02 C170.99,57.2 170.99,57.2 171.59,58.47 C171.93,59.16 172.53,60.15 172.95,60.65 C173.36,61.16 173.78,61.72 173.88,61.88 C173.97,62.06 174.3,62.26 174.57,62.31 C175.14,62.42 176.21,63.34 176.21,63.7 C176.21,63.85 176.39,63.91 176.74,63.88 C177.29,63.85 177.83,64.15 179.01,65.16 C179.34,65.45 179.79,65.69 180.02,65.69 C180.26,65.69 180.52,65.84 180.68,66.1 C180.83,66.32 181.04,66.5 181.15,66.5 C181.67,66.5 184.02,67.82 185.45,68.9 C186.01,69.34 187.71,70.23 187.97,70.23 C188.09,70.23 188.35,70.46 188.56,70.72 C188.8,71.04 189.55,71.53 190.79,72.13 C191.81,72.63 193.0,73.33 193.4,73.67 C193.81,74.01 194.21,74.28 194.29,74.28 C194.39,74.28 194.86,74.56 195.35,74.9 C195.83,75.24 196.66,75.76 197.19,76.06 C197.73,76.36 198.54,76.89 198.99,77.21 C199.45,77.55 200.06,77.93 200.37,78.06 C200.68,78.19 201.21,78.59 201.57,78.93 C202.01,79.39 202.41,79.61 202.83,79.68 C203.77,79.82 206.03,81.33 206.03,81.82 C206.03,82.08 206.43,82.24 206.75,82.12 C206.88,82.08 207.18,82.19 207.42,82.37 C207.66,82.56 207.94,82.71 208.03,82.71 C208.57,82.72 212.51,87.28 212.51,87.88 C212.51,88.01 212.88,88.88 213.35,89.81 C214.08,91.28 214.19,91.65 214.21,92.51 C214.23,93.24 214.32,93.66 214.58,94.08 C214.94,94.67 214.94,94.67 214.94,114.14 C214.92,133.62 214.92,133.62 215.36,134.47 C215.88,135.47 216.32,135.97 216.96,136.3 C217.24,136.43 217.61,136.7 217.82,136.88 C218.03,137.07 218.5,137.35 218.88,137.48 C219.26,137.63 219.62,137.88 219.72,138.1 C219.8,138.29 219.99,138.45 220.14,138.45 C220.53,138.45 222.12,139.21 223.06,139.85 C223.51,140.15 224.05,140.4 224.22,140.4 C224.42,140.4 224.94,140.64 225.39,140.93 C227.48,142.32 228.57,142.99 228.7,142.99 C228.78,142.99 229.05,143.15 229.31,143.36 C230.54,144.37 231.56,144.77 232.89,144.77 C234.17,144.77 234.17,144.77 234.93,144.08 C235.68,143.38 235.68,143.38 235.68,117.4 C235.68,91.69 235.58,86.32 235.13,85.54 C235.03,85.37 234.79,84.7 234.59,84.09 C233.57,80.84 233.46,80.54 233.07,79.76 C232.88,79.37 232.8,79.0 232.86,78.69 C232.94,78.32 232.89,78.2 232.63,78.14 C232.33,78.06 232.08,77.7 231.53,76.55 C231.39,76.24 231.05,75.72 230.75,75.42 C230.48,75.11 229.75,74.1 229.13,73.18 C228.52,72.26 227.8,71.35 227.56,71.15 C227.3,70.98 227.09,70.68 227.09,70.52 C227.09,70.33 226.91,70.15 226.61,70.04 C226.28,69.94 226.09,69.73 226.02,69.45 C225.88,68.85 225.7,68.66 225.2,68.53 C224.95,68.48 224.5,68.22 224.19,67.98 C223.87,67.72 223.36,67.39 223.06,67.23 C222.75,67.07 222.12,66.6 221.68,66.2 C220.71,65.29 219.82,64.72 219.36,64.72 C218.84,64.72 218.18,64.1 218.18,63.63 C218.18,63.26 218.13,63.23 217.66,63.31 C217.24,63.38 216.9,63.26 216.15,62.81 C214.13,61.61 212.83,60.64 212.83,60.31 C212.83,60.05 212.75,60.01 212.39,60.09 C211.84,60.22 209.49,58.97 207.74,57.62 C207.13,57.17 206.48,56.78 206.3,56.78 C206.12,56.78 205.46,56.39 204.83,55.92 C204.19,55.45 203.47,54.98 203.22,54.87 C202.98,54.77 202.74,54.56 202.69,54.43 C202.62,54.3 202.46,54.19 202.3,54.19 C202.14,54.19 201.93,54.07 201.81,53.94 C201.72,53.81 201.46,53.67 201.28,53.6 C201.08,53.54 200.39,53.12 199.72,52.66 C198.31,51.69 197.02,50.93 195.9,50.4 C195.46,50.19 194.67,49.68 194.13,49.26 C193.61,48.86 193.09,48.52 193.0,48.52 C192.88,48.52 192.64,48.34 192.43,48.13 C192.24,47.93 191.8,47.67 191.46,47.56 C191.1,47.46 190.39,47.06 189.85,46.65 C189.3,46.26 188.48,45.74 188.01,45.5 C187.54,45.26 186.86,44.84 186.5,44.55 C186.14,44.25 185.66,43.98 185.43,43.93 C185.2,43.87 184.67,43.52 184.26,43.17 C183.84,42.8 183.06,42.33 182.53,42.1 C181.99,41.89 181.07,41.39 180.49,40.98 C179.9,40.58 179.04,40.07 178.57,39.85 C178.12,39.64 177.42,39.18 177.05,38.86 C176.4,38.32 176.27,38.27 175.11,38.23 C174.43,38.19 173.6,38.21 173.29,38.29 Z M126.78,108.25 C126.27,108.34 124.4,109.25 124.27,109.46 C124.21,109.54 123.9,109.75 123.58,109.93 C123.25,110.11 122.47,110.6 121.84,110.99 C121.23,111.37 120.59,111.71 120.45,111.71 C120.3,111.71 119.75,112.07 119.2,112.51 C118.67,112.95 117.81,113.5 117.29,113.74 C116.79,113.98 116.04,114.4 115.62,114.7 C114.57,115.44 112.22,116.67 111.6,116.8 C111.33,116.87 111.0,117.03 110.89,117.16 C110.64,117.45 109.46,118.26 108.75,118.62 C108.46,118.76 108.07,119.02 107.89,119.2 C107.7,119.38 107.31,119.64 107.05,119.78 C104.57,121.16 102.8,122.26 102.19,122.81 C101.44,123.5 101.44,123.5 101.63,124.16 C101.83,124.82 102.48,125.37 103.79,126.07 C104.07,126.2 104.62,126.57 105.02,126.88 C105.41,127.19 105.9,127.43 106.09,127.43 C106.29,127.43 106.84,127.72 107.31,128.08 C107.78,128.44 108.21,128.73 108.3,128.73 C108.38,128.73 108.54,128.84 108.65,128.99 C108.77,129.13 109.23,129.41 109.69,129.6 C110.13,129.81 110.94,130.27 111.47,130.64 C112.01,131.01 112.54,131.32 112.67,131.32 C112.78,131.32 113.25,131.61 113.69,131.97 C114.14,132.33 114.63,132.62 114.79,132.62 C114.94,132.62 115.23,132.8 115.44,133.02 C115.65,133.25 115.93,133.43 116.04,133.43 C116.56,133.43 117.21,133.91 117.26,134.35 C117.29,134.72 117.39,134.81 117.76,134.81 C118.0,134.79 118.2,134.85 118.2,134.92 C118.2,134.98 118.12,135.05 118.02,135.05 C117.89,135.05 117.89,135.11 118.03,135.29 C118.18,135.47 118.31,135.49 118.52,135.37 C119.06,135.08 119.56,135.19 120.37,135.78 C120.81,136.09 121.26,136.35 121.36,136.35 C121.47,136.35 121.68,136.49 121.84,136.67 C122.0,136.85 122.56,137.24 123.04,137.51 C123.54,137.79 124.06,138.11 124.19,138.23 C124.78,138.73 127.19,139.59 128.0,139.59 C128.81,139.59 131.22,138.73 131.81,138.23 C131.94,138.11 132.46,137.79 132.96,137.51 C133.44,137.24 134.0,136.85 134.16,136.67 C134.32,136.49 134.53,136.35 134.64,136.35 C134.74,136.35 135.19,136.09 135.63,135.78 C136.44,135.19 136.94,135.08 137.48,135.37 C137.69,135.49 137.82,135.47 137.97,135.29 C138.11,135.11 138.11,135.05 137.98,135.05 C137.88,135.05 137.8,134.98 137.8,134.92 C137.8,134.85 138.0,134.79 138.26,134.81 C138.61,134.81 138.71,134.72 138.74,134.35 C138.79,133.91 139.44,133.43 139.96,133.43 C140.07,133.43 140.35,133.25 140.56,133.02 C140.77,132.8 141.06,132.62 141.21,132.62 C141.37,132.62 141.86,132.33 142.31,131.97 C142.75,131.61 143.22,131.32 143.33,131.32 C143.46,131.32 143.99,131.01 144.53,130.64 C145.06,130.27 145.87,129.81 146.31,129.6 C146.77,129.41 147.23,129.13 147.35,128.99 C147.46,128.84 147.62,128.73 147.7,128.73 C147.79,128.73 148.22,128.44 148.69,128.08 C149.16,127.72 149.71,127.43 149.91,127.43 C150.1,127.43 150.59,127.19 150.98,126.88 C151.38,126.57 151.93,126.2 152.21,126.07 C153.52,125.37 154.17,124.82 154.37,124.16 C154.56,123.5 154.56,123.5 153.81,122.81 C153.2,122.26 151.43,121.16 148.95,119.78 C148.69,119.64 148.3,119.38 148.11,119.2 C147.93,119.02 147.54,118.76 147.25,118.62 C146.54,118.26 145.36,117.45 145.11,117.16 C145.0,117.03 144.67,116.87 144.4,116.8 C143.78,116.67 141.43,115.44 140.38,114.7 C139.96,114.4 139.21,113.98 138.71,113.74 C138.19,113.5 137.33,112.95 136.8,112.51 C136.25,112.07 135.7,111.71 135.57,111.71 C135.29,111.71 133.1,110.42 131.81,109.49 C130.37,108.46 128.32,107.95 126.78,108.25 Z M68.35,135.36 C67.3,135.62 60.15,139.44 58.64,140.56 C57.98,141.06 57.28,141.17 56.39,140.95 C55.95,140.85 55.94,140.85 56.03,141.32 C56.12,141.66 56.07,141.86 55.86,142.05 C55.57,142.29 54.19,142.99 53.98,142.99 C53.91,142.99 53.54,143.25 53.12,143.56 C52.71,143.86 52.26,144.12 52.13,144.12 C51.98,144.12 51.47,144.35 51.0,144.61 C50.41,144.95 49.99,145.08 49.76,145.01 C49.5,144.93 49.47,144.95 49.63,145.08 C50.01,145.32 49.62,145.66 48.05,146.41 C47.28,146.78 46.25,147.35 45.76,147.66 C45.23,148.0 44.69,148.22 44.43,148.21 C44.17,148.19 43.93,148.27 43.85,148.43 C43.62,148.84 40.62,150.57 38.31,151.66 C38.0,151.79 37.38,152.13 36.93,152.39 C36.49,152.65 36.01,152.87 35.86,152.87 C35.71,152.87 35.47,153.0 35.33,153.18 C35.18,153.34 34.74,153.52 34.37,153.57 C33.96,153.62 33.62,153.78 33.53,153.94 C33.25,154.45 32.41,155.14 31.99,155.26 C31.76,155.3 31.1,155.68 30.51,156.07 C29.78,156.54 29.26,156.76 28.89,156.76 C28.5,156.76 28.2,156.91 27.77,157.31 C26.93,158.14 25.0,159.19 24.66,159.02 C24.23,158.77 24.05,158.85 24.05,159.26 C24.05,159.63 23.4,160.1 21.73,160.96 C21.49,161.09 21.31,161.27 21.34,161.37 C21.37,161.46 21.18,161.98 20.92,162.52 C20.42,163.49 20.42,163.49 20.43,167.7 C20.43,170.46 20.51,172.17 20.63,172.64 C20.74,173.05 20.94,173.88 21.05,174.51 C21.32,175.87 21.88,177.73 22.2,178.36 C22.33,178.62 22.43,178.93 22.43,179.06 C22.43,179.17 22.65,179.71 22.93,180.21 C23.22,180.73 23.77,181.77 24.18,182.53 C24.57,183.29 25.07,184.18 25.29,184.51 C25.72,185.14 25.67,185.53 25.17,185.4 C24.92,185.33 24.86,185.4 24.86,185.69 C24.86,186.17 25.21,186.3 25.67,185.98 C26.09,185.69 26.48,185.98 27.34,187.23 C27.61,187.63 28.6,188.72 29.52,189.66 C30.45,190.6 31.32,191.55 31.47,191.81 C31.63,192.09 31.95,192.32 32.31,192.41 C32.65,192.51 33.2,192.9 33.69,193.39 C34.13,193.82 34.61,194.2 34.79,194.2 C35.2,194.2 37.53,195.46 37.8,195.83 C37.92,195.99 38.14,196.14 38.31,196.14 C38.47,196.14 38.79,196.4 39.02,196.71 C39.38,197.16 39.57,197.28 40.01,197.28 C40.66,197.28 41.87,198.23 41.87,198.75 C41.87,199.09 42.21,199.15 42.71,198.88 C42.99,198.73 43.12,198.78 43.57,199.28 C43.9,199.64 44.25,199.87 44.5,199.87 C44.89,199.87 46.2,200.71 46.46,201.12 C46.52,201.23 46.88,201.39 47.24,201.49 C47.61,201.59 48.08,201.84 48.31,202.07 C48.52,202.28 48.76,202.46 48.86,202.46 C48.94,202.46 49.08,202.66 49.16,202.88 C49.31,203.24 49.39,203.29 49.78,203.19 C50.1,203.12 50.36,203.19 50.64,203.4 C50.85,203.56 51.47,203.95 52.0,204.24 C52.53,204.55 53.34,205.05 53.78,205.38 C54.24,205.7 54.95,206.14 55.39,206.33 C55.84,206.53 56.42,206.85 56.7,207.06 C56.97,207.27 57.48,207.57 57.83,207.71 C58.17,207.86 58.85,208.26 59.37,208.6 C60.25,209.2 60.77,209.51 62.44,210.4 C62.99,210.69 63.23,210.95 63.34,211.34 C63.49,211.86 63.85,212.02 64.19,211.68 C64.36,211.5 64.8,211.75 66.57,213.03 C67.83,213.95 67.82,213.93 68.33,214.05 C68.58,214.1 69.06,214.39 69.42,214.71 C69.76,215.02 70.31,215.36 70.64,215.44 C70.98,215.54 71.56,215.91 71.95,216.27 C72.34,216.62 72.82,216.95 73.03,216.96 C73.42,217.01 74.49,217.58 75.01,218.02 C75.19,218.18 75.68,218.45 76.1,218.63 C76.52,218.81 77.1,219.15 77.39,219.36 C77.68,219.57 78.45,220.03 79.06,220.37 C79.69,220.71 80.52,221.23 80.91,221.53 C81.3,221.83 81.7,222.07 81.8,222.07 C81.9,222.07 82.3,222.3 82.69,222.55 C83.52,223.12 85.25,223.25 86.09,222.81 C86.78,222.46 87.57,221.47 87.59,220.97 C87.59,220.72 87.59,216.82 87.57,212.3 C87.55,204.05 87.55,204.05 86.94,202.74 C86.14,201.0 84.91,199.85 82.72,198.75 C81.87,198.31 81.02,197.79 80.84,197.6 C80.67,197.4 80.12,197.03 79.63,196.76 C79.14,196.5 78.24,196.01 77.6,195.65 C76.99,195.31 76.03,194.8 75.5,194.5 C73.29,193.34 72.43,192.59 73.03,192.37 C73.18,192.3 73.18,192.25 73.03,192.09 C72.87,191.93 72.74,191.91 72.43,192.06 C72.03,192.24 71.9,192.19 70.15,191.23 C69.89,191.08 69.53,190.96 69.39,190.96 C69.23,190.96 68.98,190.78 68.84,190.55 C68.69,190.32 68.48,190.14 68.35,190.14 C68.04,190.14 65.68,188.88 65.26,188.49 C65.06,188.31 64.95,188.07 65.0,187.94 C65.04,187.78 64.96,187.71 64.69,187.71 C64.46,187.71 64.12,187.54 63.91,187.31 C63.67,187.05 63.36,186.9 63.04,186.9 C62.76,186.9 62.27,186.74 61.97,186.53 C61.66,186.32 60.85,185.85 60.18,185.48 C59.44,185.07 58.87,184.64 58.71,184.34 C58.51,184.0 58.27,183.84 57.82,183.76 C57.07,183.61 55.87,183.01 55.19,182.45 C54.93,182.22 54.11,181.73 53.38,181.38 C52.0,180.68 51.79,180.47 52.05,179.98 C52.26,179.63 51.87,178.8 51.5,178.8 C51.35,178.8 51.03,178.96 50.75,179.14 C50.22,179.53 50.31,179.56 48.43,178.49 C47.82,178.12 47.04,177.7 46.72,177.52 C46.15,177.2 44.79,175.82 44.79,175.54 C44.79,175.46 44.93,175.12 45.11,174.78 C45.37,174.3 45.42,173.99 45.34,173.47 C45.21,172.66 44.77,172.53 44.82,173.32 C44.89,173.96 44.43,174.15 44.14,173.63 C43.83,173.03 44.22,172.09 45.18,171.12 C45.86,170.46 46.6,169.97 48.53,169.0 C52.68,166.89 53.43,166.5 54.27,166.0 C54.72,165.72 55.21,165.51 55.32,165.51 C55.61,165.51 58.69,163.76 59.62,163.07 C59.97,162.81 60.8,162.34 61.45,162.03 C62.1,161.74 62.81,161.33 63.04,161.15 C63.26,160.98 63.72,160.75 64.04,160.64 C64.36,160.52 64.9,160.26 65.22,160.05 C65.64,159.78 65.92,159.7 66.29,159.78 C66.71,159.86 66.79,159.83 66.89,159.47 C67.14,158.46 69.58,158.03 71.2,158.71 C72.56,159.28 74.12,160.33 74.12,160.67 C74.12,161.03 74.41,161.24 74.82,161.15 C75.09,161.12 76.31,161.82 76.57,162.16 C76.66,162.29 77.77,162.9 78.66,163.33 C79.39,163.68 81.3,164.93 82.22,165.69 C82.63,166.02 83.65,166.66 84.49,167.12 C85.33,167.59 86.65,168.37 87.41,168.85 C88.17,169.34 89.08,169.87 89.43,170.03 C89.79,170.2 90.23,170.49 90.41,170.68 C90.57,170.88 91.26,171.32 91.94,171.62 C93.27,172.27 93.79,172.6 94.8,173.45 C95.17,173.76 95.74,174.2 96.04,174.43 C96.66,174.85 97.62,176.16 97.62,176.57 C97.62,176.7 97.76,176.94 97.96,177.12 C98.98,178.04 98.99,178.45 98.99,200.11 C98.99,219.56 98.99,219.56 99.35,220.29 C99.56,220.69 99.72,221.23 99.72,221.47 C99.72,221.73 99.8,222.07 99.9,222.25 C100.0,222.42 100.18,222.99 100.31,223.49 C100.44,224.0 100.76,224.86 101.04,225.39 C101.42,226.2 101.49,226.46 101.36,226.8 C101.2,227.25 101.29,227.43 101.86,227.63 C102.01,227.68 102.61,228.45 103.21,229.34 C103.79,230.25 104.32,230.98 104.41,230.98 C104.47,230.98 104.78,231.32 105.07,231.74 C105.7,232.6 108.57,235.52 108.81,235.52 C108.89,235.52 109.27,235.79 109.66,236.13 C110.03,236.47 110.81,236.99 111.39,237.28 C111.97,237.58 112.48,237.88 112.52,237.93 C112.61,238.06 113.25,238.4 114.96,239.25 C115.54,239.54 116.17,239.91 116.37,240.09 C116.64,240.35 116.85,240.4 117.22,240.31 C117.53,240.27 117.9,240.31 118.18,240.46 C118.42,240.57 119.02,240.74 119.51,240.8 C119.99,240.87 120.58,241.01 120.84,241.14 C121.08,241.25 122.1,241.42 123.12,241.5 C124.14,241.58 125.05,241.69 125.15,241.74 C125.37,241.89 130.63,241.89 130.85,241.74 C130.95,241.69 131.86,241.58 132.88,241.5 C133.9,241.42 134.92,241.25 135.16,241.14 C135.42,241.01 136.01,240.87 136.49,240.8 C136.98,240.74 137.58,240.57 137.82,240.46 C138.1,240.31 138.47,240.27 138.78,240.31 C139.15,240.4 139.36,240.35 139.63,240.09 C139.83,239.91 140.46,239.54 141.04,239.25 C142.75,238.4 143.39,238.06 143.48,237.93 C143.52,237.88 144.03,237.58 144.61,237.28 C145.19,236.99 145.97,236.47 146.34,236.13 C146.73,235.79 147.11,235.52 147.19,235.52 C147.43,235.52 150.3,232.6 150.93,231.74 C151.22,231.32 151.53,230.98 151.59,230.98 C151.68,230.98 152.21,230.25 152.79,229.34 C153.39,228.45 153.99,227.68 154.14,227.63 C154.71,227.43 154.8,227.25 154.64,226.8 C154.51,226.46 154.58,226.2 154.96,225.39 C155.24,224.86 155.56,224.0 155.69,223.49 C155.82,222.99 156.0,222.42 156.1,222.25 C156.2,222.07 156.28,221.73 156.28,221.47 C156.28,221.23 156.44,220.69 156.65,220.29 C157.01,219.56 157.01,219.56 157.01,200.11 C157.01,178.45 157.02,178.04 158.04,177.12 C158.24,176.94 158.38,176.7 158.38,176.57 C158.38,176.16 159.34,174.85 159.96,174.43 C160.26,174.2 160.83,173.76 161.2,173.45 C162.21,172.6 162.73,172.27 164.06,171.62 C164.74,171.32 165.43,170.88 165.59,170.68 C165.77,170.49 166.21,170.2 166.57,170.03 C166.92,169.87 167.83,169.34 168.59,168.85 C169.35,168.37 170.67,167.59 171.51,167.12 C172.35,166.66 173.37,166.02 173.78,165.69 C174.7,164.93 176.61,163.68 177.34,163.33 C178.23,162.9 179.34,162.29 179.43,162.16 C179.69,161.82 180.91,161.12 181.18,161.15 C181.59,161.24 181.88,161.03 181.88,160.67 C181.88,160.33 183.44,159.28 184.8,158.71 C186.42,158.03 188.86,158.46 189.11,159.47 C189.21,159.83 189.29,159.86 189.71,159.78 C190.08,159.7 190.36,159.78 190.78,160.05 C191.1,160.26 191.64,160.52 191.96,160.64 C192.28,160.75 192.74,160.98 192.96,161.15 C193.19,161.33 193.9,161.74 194.55,162.03 C195.2,162.34 196.03,162.81 196.38,163.07 C197.31,163.76 200.39,165.51 200.68,165.51 C200.79,165.51 201.28,165.72 201.73,166.0 C202.57,166.5 203.32,166.89 207.47,169.0 C209.4,169.97 210.14,170.46 210.82,171.12 C211.78,172.09 212.17,173.03 211.86,173.63 C211.57,174.15 211.11,173.96 211.18,173.32 C211.23,172.53 210.79,172.66 210.66,173.47 C210.58,173.99 210.63,174.3 210.89,174.78 C211.07,175.12 211.21,175.46 211.21,175.54 C211.21,175.82 209.85,177.2 209.28,177.52 C208.96,177.7 208.2,178.12 207.57,178.49 C205.69,179.56 205.78,179.53 205.25,179.14 C204.97,178.96 204.65,178.8 204.5,178.8 C204.13,178.8 203.74,179.63 203.95,179.98 C204.21,180.47 204.0,180.68 202.62,181.38 C201.89,181.73 201.07,182.22 200.81,182.45 C200.13,183.01 198.93,183.61 198.18,183.76 C197.73,183.84 197.49,184.0 197.29,184.34 C197.13,184.64 196.56,185.07 195.82,185.48 C195.15,185.85 194.34,186.32 194.03,186.53 C193.73,186.74 193.24,186.9 192.96,186.9 C192.64,186.9 192.33,187.05 192.09,187.31 C191.88,187.54 191.54,187.71 191.31,187.71 C191.04,187.71 190.96,187.78 191.0,187.94 C191.05,188.07 190.94,188.31 190.74,188.49 C190.32,188.88 187.96,190.14 187.65,190.14 C187.52,190.14 187.31,190.32 187.16,190.55 C187.02,190.78 186.77,190.96 186.61,190.96 C186.47,190.96 186.13,191.08 185.85,191.23 C184.1,192.19 183.97,192.24 183.57,192.06 C183.26,191.91 183.13,191.93 182.97,192.09 C182.82,192.25 182.82,192.3 182.98,192.37 C183.57,192.59 182.71,193.34 180.5,194.5 C179.97,194.8 179.03,195.31 178.4,195.65 C177.78,196.01 176.86,196.5 176.37,196.76 C175.88,197.03 175.33,197.4 175.16,197.6 C174.98,197.79 174.13,198.31 173.28,198.75 C171.09,199.85 169.86,201.0 169.06,202.74 C168.45,204.05 168.45,204.05 168.43,212.3 C168.41,216.82 168.41,220.72 168.41,220.97 C168.43,221.47 169.22,222.46 169.91,222.81 C170.75,223.25 172.48,223.12 173.31,222.55 C173.7,222.3 174.1,222.07 174.2,222.07 C174.3,222.07 174.7,221.83 175.09,221.53 C175.48,221.23 176.32,220.71 176.94,220.37 C177.57,220.03 178.32,219.57 178.61,219.36 C178.9,219.15 179.48,218.81 179.9,218.63 C180.32,218.45 180.81,218.18 180.99,218.02 C181.51,217.58 182.58,217.01 182.97,216.96 C183.18,216.95 183.66,216.62 184.05,216.27 C184.44,215.91 185.02,215.54 185.36,215.44 C185.69,215.36 186.24,215.02 186.58,214.71 C186.94,214.39 187.42,214.1 187.67,214.05 C188.18,213.93 188.17,213.95 189.43,213.03 C191.2,211.75 191.64,211.5 191.81,211.68 C192.15,212.02 192.51,211.86 192.66,211.34 C192.77,210.95 193.01,210.69 193.56,210.4 C195.23,209.51 195.75,209.2 196.63,208.6 C197.15,208.26 197.83,207.86 198.17,207.71 C198.52,207.57 199.03,207.27 199.3,207.06 C199.58,206.85 200.16,206.53 200.61,206.33 C201.05,206.14 201.78,205.7 202.22,205.38 C202.67,205.05 203.47,204.55 204.0,204.24 C204.53,203.95 205.15,203.56 205.36,203.4 C205.64,203.19 205.9,203.12 206.22,203.19 C206.61,203.29 206.69,203.24 206.84,202.88 C206.92,202.66 207.06,202.46 207.14,202.46 C207.24,202.46 207.48,202.28 207.69,202.07 C207.92,201.84 208.39,201.59 208.76,201.49 C209.12,201.39 209.48,201.23 209.54,201.12 C209.8,200.71 211.11,199.87 211.5,199.87 C211.75,199.87 212.1,199.64 212.43,199.28 C212.88,198.78 213.01,198.73 213.29,198.88 C213.79,199.15 214.13,199.09 214.13,198.75 C214.13,198.23 215.34,197.28 215.99,197.28 C216.43,197.28 216.62,197.16 216.98,196.71 C217.21,196.4 217.53,196.14 217.69,196.14 C217.86,196.14 218.08,195.99 218.2,195.83 C218.47,195.46 220.8,194.2 221.21,194.2 C221.39,194.2 221.87,193.82 222.31,193.39 C222.8,192.9 223.35,192.51 223.69,192.41 C224.05,192.32 224.37,192.09 224.53,191.81 C224.68,191.55 225.55,190.6 226.48,189.66 C227.4,188.72 228.39,187.63 228.66,187.23 C229.52,185.98 229.91,185.69 230.33,185.98 C230.79,186.3 231.14,186.17 231.14,185.69 C231.14,185.4 231.08,185.33 230.83,185.4 C230.33,185.53 230.28,185.14 230.71,184.51 C230.93,184.18 231.43,183.29 231.82,182.53 C232.23,181.77 232.78,180.73 233.07,180.21 C233.35,179.71 233.57,179.17 233.57,179.06 C233.57,178.93 233.67,178.62 233.8,178.36 C234.12,177.73 234.68,175.87 234.95,174.51 C235.06,173.88 235.26,173.05 235.37,172.64 C235.49,172.17 235.57,170.46 235.57,167.7 C235.58,163.49 235.58,163.49 235.08,162.52 C234.82,161.98 234.63,161.46 234.66,161.37 C234.69,161.27 234.51,161.09 234.27,160.96 C232.6,160.1 231.95,159.63 231.95,159.26 C231.95,158.85 231.77,158.77 231.34,159.02 C231.0,159.19 229.07,158.14 228.23,157.31 C227.8,156.91 227.5,156.76 227.11,156.76 C226.74,156.76 226.22,156.54 225.49,156.07 C224.9,155.68 224.24,155.3 224.01,155.26 C223.59,155.14 222.75,154.45 222.47,153.94 C222.38,153.78 222.04,153.62 221.63,153.57 C221.26,153.52 220.82,153.34 220.67,153.18 C220.53,153.0 220.29,152.87 220.14,152.87 C219.99,152.87 219.52,152.65 219.07,152.39 C218.63,152.13 218.0,151.79 217.69,151.66 C215.38,150.57 212.38,148.84 212.15,148.43 C212.07,148.27 211.83,148.19 211.57,148.21 C211.31,148.22 210.77,148.0 210.24,147.66 C209.75,147.35 208.72,146.78 207.95,146.41 C206.38,145.66 205.99,145.32 206.37,145.08 C206.53,144.95 206.5,144.93 206.24,145.01 C206.01,145.08 205.59,144.95 205.0,144.61 C204.53,144.35 204.02,144.12 203.87,144.12 C203.74,144.12 203.29,143.86 202.88,143.56 C202.46,143.25 202.09,142.99 202.02,142.99 C201.81,142.99 200.43,142.29 200.14,142.05 C199.93,141.86 199.88,141.66 199.97,141.32 C200.06,140.85 200.05,140.85 199.61,140.95 C198.72,141.17 198.02,141.06 197.36,140.56 C196.32,139.8 193.26,138.08 189.58,136.22 C187.8,135.31 187.8,135.31 185.59,135.24 C183.66,135.18 183.29,135.21 182.67,135.49 C182.27,135.66 181.7,135.86 181.38,135.92 C181.07,135.97 180.47,136.31 180.03,136.67 C179.61,137.03 179.11,137.32 178.93,137.32 C178.75,137.32 178.25,137.61 177.83,137.97 C177.39,138.32 176.7,138.78 176.26,138.97 C175.84,139.15 175.27,139.46 175.03,139.62 C174.78,139.8 174.48,139.91 174.36,139.86 C174.23,139.81 174.15,139.88 174.17,140.02 C174.18,140.25 171.17,142.26 169.89,142.86 C169.66,142.97 169.27,143.2 169.03,143.36 C168.72,143.57 168.41,143.64 168.09,143.57 C167.67,143.49 167.6,143.54 167.39,144.04 C167.22,144.43 166.96,144.69 166.44,144.93 C166.05,145.11 165.51,145.48 165.27,145.74 C164.98,146.04 164.64,146.23 164.38,146.23 C163.94,146.23 163.46,146.51 162.68,147.2 C162.42,147.45 161.84,147.85 161.4,148.11 C160.96,148.37 160.34,148.74 160.02,148.94 C159.7,149.13 159.26,149.39 159.03,149.5 C158.81,149.62 158.27,149.94 157.83,150.23 C157.41,150.52 156.94,150.77 156.8,150.77 C156.65,150.77 156.36,150.95 156.13,151.16 C155.3,151.95 151.03,154.66 150.61,154.66 C150.36,154.66 150.01,154.83 149.8,155.06 C149.58,155.29 149.34,155.47 149.24,155.47 C149.15,155.47 148.97,155.61 148.86,155.81 C148.74,155.99 148.3,156.29 147.88,156.47 C147.46,156.67 146.86,157.01 146.55,157.25 C145.71,157.9 145.1,158.08 144.58,157.8 C144.11,157.56 143.64,157.65 143.64,157.98 C143.64,158.09 143.78,158.22 143.96,158.27 C144.48,158.4 144.35,158.68 143.52,159.18 C143.09,159.44 142.55,159.81 142.31,160.0 C141.56,160.59 140.92,160.73 140.56,160.41 C140.4,160.26 140.17,160.18 140.09,160.25 C139.81,160.41 139.88,160.65 140.27,160.8 C140.59,160.91 140.59,160.94 140.01,161.59 C139.33,162.34 138.87,162.55 138.55,162.29 C138.39,162.16 138.29,162.16 138.14,162.34 C138.0,162.5 138.01,162.6 138.21,162.76 C138.34,162.87 138.45,163.05 138.45,163.15 C138.45,163.39 137.3,164.51 136.8,164.77 C136.52,164.91 136.43,165.09 136.43,165.51 C136.43,165.82 136.35,166.29 136.25,166.57 C136.15,166.83 135.97,167.31 135.86,167.62 C135.42,168.82 135.39,170.94 135.32,193.06 C135.29,206.4 135.19,216.2 135.11,216.74 C134.92,217.86 134.66,218.21 134.14,218.08 C133.74,217.98 133.56,218.52 133.91,218.75 C134.01,218.79 134.08,218.96 134.08,219.09 C134.08,219.43 132.15,221.24 131.66,221.37 C131.44,221.42 131.03,221.63 130.79,221.81 C130.37,222.12 130.11,222.15 128.0,222.15 C125.89,222.15 125.63,222.12 125.21,221.81 C124.97,221.63 124.56,221.42 124.34,221.37 C123.85,221.24 121.92,219.43 121.92,219.09 C121.92,218.96 122.0,218.79 122.09,218.75 C122.44,218.52 122.26,217.98 121.86,218.08 C121.34,218.21 121.08,217.86 120.89,216.74 C120.81,216.2 120.71,206.4 120.68,193.06 C120.61,170.94 120.58,168.82 120.14,167.62 C120.03,167.31 119.85,166.83 119.75,166.57 C119.65,166.29 119.57,165.82 119.57,165.51 C119.57,165.09 119.48,164.91 119.2,164.77 C118.7,164.51 117.55,163.39 117.55,163.15 C117.55,163.05 117.66,162.87 117.79,162.76 C117.99,162.6 118.0,162.5 117.86,162.34 C117.71,162.16 117.61,162.16 117.45,162.29 C117.13,162.55 116.67,162.34 115.99,161.59 C115.41,160.94 115.41,160.91 115.73,160.8 C116.12,160.65 116.19,160.41 115.91,160.25 C115.83,160.18 115.6,160.26 115.44,160.41 C115.08,160.73 114.44,160.59 113.69,160.0 C113.45,159.81 112.91,159.44 112.49,159.18 C111.65,158.68 111.52,158.4 112.04,158.27 C112.22,158.22 112.36,158.09 112.36,157.98 C112.36,157.65 111.89,157.56 111.42,157.8 C110.9,158.08 110.29,157.9 109.45,157.25 C109.14,157.01 108.54,156.67 108.12,156.47 C107.7,156.29 107.26,155.99 107.14,155.81 C107.03,155.61 106.85,155.47 106.76,155.47 C106.66,155.47 106.42,155.29 106.2,155.06 C105.99,154.83 105.64,154.66 105.39,154.66 C104.97,154.66 100.7,151.95 99.87,151.16 C99.64,150.95 99.35,150.77 99.2,150.77 C99.06,150.77 98.59,150.52 98.17,150.23 C97.73,149.94 97.19,149.62 96.97,149.5 C96.74,149.39 96.3,149.13 95.98,148.94 C95.66,148.74 95.04,148.37 94.6,148.11 C94.16,147.85 93.6,147.45 93.32,147.2 C92.54,146.51 92.06,146.23 91.62,146.23 C91.36,146.23 91.02,146.04 90.73,145.74 C90.49,145.48 89.95,145.11 89.56,144.93 C89.04,144.69 88.78,144.43 88.61,144.04 C88.4,143.54 88.33,143.49 87.91,143.57 C87.59,143.64 87.28,143.57 86.97,143.36 C86.73,143.2 86.34,142.97 86.11,142.86 C84.83,142.26 81.82,140.25 81.83,140.02 C81.85,139.88 81.77,139.81 81.64,139.86 C81.52,139.91 81.22,139.8 80.97,139.62 C80.73,139.46 80.16,139.15 79.74,138.97 C79.3,138.78 78.61,138.32 78.17,137.97 C77.75,137.61 77.25,137.32 77.07,137.32 C76.89,137.32 76.39,137.03 75.97,136.67 C75.53,136.31 74.93,135.97 74.61,135.91 C74.3,135.86 73.75,135.68 73.39,135.52 C72.71,135.19 69.44,135.1 68.35,135.36 Z"/>
</svg>
