<svg xmlns="http://www.w3.org/2000/svg" viewBox="0 0 256 256"><rect width="256" height="256" rx="56" fill="#0F172A"/><g transform="translate(51.2,51.2) scale(0.6)"><path fill="#A7E3E5" fill-rule="evenodd" d="M125.2 14.36c-.15.06-.62.11-1.04.11-.81.02-1.83.21-3.06.6-.42.13-.93.23-1.14.23-.84.01-4.15 1.07-4.65 1.49-.14.13-.71.43-1.25.68-.51.24-1.34.68-1.79.99-.47.3-.96.56-1.09.56-.15 0-.55.3-.92.65-.38.37-.91.78-1.17.91-1.35.7-3.84 3.14-4.21 4.1-.05.16-.38.53-.7.84s-.81.94-1.09 1.4c-.26.47-.55.89-.63.94-.14.09-.79 1.49-.79 1.71 0 .08-.23.46-.49.83-.65.91-1.31 2.72-1.44 3.94-.07.53-.24 1.16-.41 1.41-.26.4-.29 1.44-.34 18.55-.03 12.58-.11 18.26-.22 18.57-.1.26-.18.68-.18.94 0 .55-.2.99-.75 1.65-.21.26-.39.6-.39.78 0 .2-.35.57-.95 1.01-.54.37-1.04.84-1.14 1.03-.17.39-1.63 1.38-2.69 1.84-.35.16-.79.43-.95.63-.18.18-.76.55-1.31.81-.54.26-1.09.6-1.22.74-.11.15-.52.42-.88.6-.37.18-.84.5-1.06.7-.23.21-.91.65-1.54.99-.62.32-1.32.76-1.54.95-.52.47-1.35.89-1.74.89-.16 0-.39.15-.5.35-.11.17-.63.51-1.13.76-.51.22-1.06.58-1.22.79s-.4.37-.53.37-.8.39-1.5.86c-1.44.99-3.24 2.06-3.43 2.06-.08 0-.34.18-.6.37-.24.21-.78.59-1.18.83-.41.24-1.09.68-1.53.99-.42.31-.95.57-1.16.57-.23 0-.49.16-.65.4-.15.21-.67.58-1.17.83-.48.22-1.25.69-1.68 1.03-.42.34-1.17.81-1.66 1.04-.48.23-.94.5-.98.58-.13.22-1.63.98-1.92.98-.13 0-.35.16-.53.35-.16.18-.91.73-1.64 1.2s-1.36 1.01-1.42 1.19c-.05.16-.34.5-.64.72-.3.23-.81.94-1.2 1.69-.66 1.28-.66 1.28-.68 8.88 0 10.84-.08 10.24 1.45 11.52.73.62.76.62 1.99.57 1.21-.05 2.27-.34 2.48-.68.06-.1.66-.46 1.36-.81.7-.34 1.49-.81 1.77-1.06.27-.22.82-.51 1.23-.63.42-.13 1-.45 1.31-.73.32-.27.7-.5.86-.5.15 0 .71-.29 1.23-.66.52-.38 1.25-.77 1.61-.89.34-.13.92-.52 1.26-.88.39-.4.78-.65 1.02-.65.45 0 1.7-.66 2.12-1.13.16-.18.42-.33.57-.33s.4-.14.58-.34c.41-.45 1.09-.79 1.59-.79.28 0 .47-.13.62-.44.19-.4.39-.55 1.42-1 .23-.1.65-.34.94-.54.42-.26.62-.29.89-.18.54.25.77.09.77-.53 0-.5.06-.6.61-.81.33-.15.86-.45 1.17-.68 1.02-.8 2.17-1.49 2.45-1.49.14 0 .55-.21.89-.47.35-.28.81-.62 1.03-.8.23-.16.59-.4.81-.51.23-.12.65-.43.93-.67.29-.24.79-.52 1.12-.62.32-.09.85-.34 1.18-.55.32-.21.76-.5.99-.64.22-.15.69-.47 1.05-.73.36-.25 1.26-.81 2.03-1.23.76-.44 1.58-.98 1.84-1.19.28-.22.89-.58 1.38-.79.49-.23 1.15-.6 1.46-.84 1.2-.91 2.06-1.5 2.69-1.84.36-.19.92-.56 1.26-.84.34-.26.91-.58 1.27-.71.35-.11 1.03-.5 1.49-.84.47-.34 1.1-.77 1.41-.91.31-.16.74-.42.95-.58.25-.2.65-.31 1.12-.31.62 0 .7-.04.52-.25-.23-.27.03-.72.41-.72.11 0 .56-.28 1-.64.44-.34 1.09-.71 1.43-.84.79-.26 1.08-.45.95-.66-.05-.09.38-.6.94-1.15.96-.91 2.56-3.62 2.56-4.28 0-.1.16-.38.36-.62.66-.84.66-1.08.79-23.58.05-12.12.17-22.23.26-22.76.08-.6.31-1.22.59-1.61.24-.34.43-.76.43-.92 0-.29.93-1.12 1.25-1.12.08 0 .29-.15.47-.34.67-.75 2.79-1.44 4.36-1.44s3.69.69 4.36 1.44c.18.19.39.34.47.34.32 0 1.25.83 1.25 1.12 0 .16.19.58.43.92.28.39.51 1.01.59 1.61.09.53.21 10.64.26 22.76.13 22.5.13 22.74.79 23.58.2.24.36.52.36.62 0 .66 1.6 3.37 2.56 4.28.56.55.99 1.06.94 1.15-.13.21.16.4.95.66.34.13.99.5 1.43.84.44.36.89.64 1 .64.38 0 .64.45.41.72-.18.21-.1.25.52.25.47 0 .87.11 1.12.31.21.16.64.42.95.58.31.14.94.57 1.41.91.46.34 1.14.73 1.49.84.36.13.93.45 1.27.71.34.28.9.65 1.26.84.63.34 1.49.93 2.69 1.84.31.24.97.61 1.46.84.49.21 1.1.57 1.38.79.26.21 1.08.75 1.84 1.19.77.42 1.67.98 2.03 1.23.36.26.83.58 1.05.73.23.14.67.43.99.64.33.21.86.46 1.18.55.33.1.83.38 1.12.62.28.24.7.55.93.67.22.11.58.35.81.51.22.18.68.52 1.03.8.34.26.75.47.89.47.28 0 1.43.69 2.45 1.49.31.23.84.53 1.18.68.54.21.6.31.6.81 0 .62.23.78.77.53.27-.11.47-.08.89.18.29.2.71.44.94.54 1.03.45 1.23.6 1.42 1 .15.31.34.44.62.44.5 0 1.18.34 1.59.79.18.2.43.34.58.34s.41.15.57.33c.42.47 1.67 1.13 2.12 1.13.24 0 .63.25 1.02.65.34.36.92.75 1.26.88.36.12 1.09.51 1.61.89.52.37 1.08.66 1.23.66.16 0 .54.23.86.5.31.28.89.6 1.31.73.41.12.96.41 1.23.63.28.25 1.07.72 1.77 1.06.7.35 1.3.71 1.36.81.21.34 1.27.63 2.48.68 1.23.05 1.26.05 1.99-.57 1.53-1.28 1.45-.68 1.45-11.52-.02-7.6-.02-7.6-.68-8.88-.39-.75-.9-1.46-1.2-1.69-.3-.22-.59-.56-.64-.72-.06-.18-.69-.72-1.42-1.19s-1.48-1.02-1.64-1.2c-.18-.19-.4-.35-.53-.35-.29 0-1.79-.76-1.92-.98-.04-.08-.5-.35-.98-.58-.49-.23-1.24-.7-1.66-1.04-.43-.34-1.2-.81-1.68-1.03-.5-.25-1.02-.62-1.17-.83-.16-.24-.42-.4-.65-.4-.21 0-.74-.26-1.16-.57-.44-.31-1.12-.75-1.53-.99-.4-.24-.94-.62-1.18-.83-.26-.19-.52-.37-.6-.37-.19 0-1.99-1.07-3.43-2.06-.7-.47-1.37-.86-1.5-.86s-.37-.16-.53-.37-.71-.57-1.22-.79c-.5-.25-1.02-.59-1.13-.76-.11-.2-.34-.35-.5-.35-.39 0-1.22-.42-1.74-.89-.22-.19-.9-.63-1.54-.95-.61-.34-1.31-.78-1.54-.99-.22-.2-.69-.52-1.06-.7-.36-.18-.77-.45-.88-.6-.13-.14-.68-.48-1.22-.74-.55-.26-1.13-.63-1.31-.81-.16-.2-.6-.47-.95-.63-1.06-.46-2.52-1.45-2.69-1.84-.1-.19-.6-.66-1.14-1.03-.6-.44-.95-.81-.95-1.01 0-.18-.18-.52-.39-.78-.55-.66-.75-1.1-.75-1.65 0-.26-.08-.68-.18-.94-.11-.31-.19-5.99-.22-18.57-.05-17.11-.08-18.15-.34-18.55-.17-.25-.34-.88-.41-1.41-.13-1.22-.79-3.03-1.44-3.94-.26-.37-.49-.75-.49-.83 0-.22-.65-1.62-.79-1.71-.08-.05-.37-.47-.63-.94-.28-.46-.77-1.09-1.09-1.4s-.65-.68-.7-.84c-.37-.96-2.86-3.4-4.21-4.1-.26-.13-.79-.54-1.17-.91-.37-.35-.77-.65-.92-.65-.13 0-.62-.26-1.09-.56-.45-.31-1.28-.75-1.79-.99-.54-.25-1.11-.55-1.25-.68-.52-.44-3.81-1.48-4.72-1.49-.26 0-.6-.08-.78-.18-1.05-.55-8.99-1.17-9.99-.76m-45.25 23.9c-.21.05-.68.32-1.03.63-.36.31-1.04.75-1.49.96-.47.22-1.33.73-1.92 1.13-.58.41-1.5.91-2.04 1.12-.53.23-1.31.7-1.73 1.07-.41.35-.94.7-1.17.76-.23.05-.71.32-1.07.62-.36.29-1.04.71-1.51.95s-1.29.76-1.84 1.15c-.54.41-1.25.81-1.61.91-.34.11-.78.37-.97.57-.21.21-.45.39-.57.39-.09 0-.61.34-1.13.74-.54.42-1.31.93-1.77 1.14-1.12.53-2.41 1.29-3.82 2.26-.67.46-1.36.88-1.56.94-.18.07-.44.21-.53.34-.12.13-.33.25-.49.25s-.32.11-.39.24c-.05.13-.29.34-.53.44-.25.11-.97.58-1.61 1.05-.63.47-1.29.86-1.47.86s-.83.39-1.44.84c-1.75 1.35-4.1 2.6-4.64 2.47-.37-.08-.45-.04-.45.22 0 .33-1.3 1.3-3.32 2.5-.75.45-1.09.57-1.49.5-.49-.08-.54-.05-.54.32 0 .47-.66 1.09-1.18 1.09-.46 0-1.35.57-2.32 1.48-.44.4-1.07.87-1.38 1.03-.3.16-.81.49-1.13.75-.31.24-.76.5-1.01.55-.5.13-.68.32-.82.92-.07.28-.26.49-.59.59-.3.11-.48.29-.48.48 0 .16-.21.46-.47.63-.24.2-.96 1.11-1.57 2.03-.62.92-1.35 1.93-1.62 2.24-.3.3-.64.82-.78 1.13-.55 1.15-.8 1.51-1.1 1.59-.26.06-.31.18-.23.55.06.31-.02.68-.21 1.07-.39.78-.5 1.08-1.52 4.33-.2.61-.44 1.28-.54 1.45-.45.78-.55 6.15-.55 31.86 0 25.98 0 25.98.75 26.68.76.69.76.69 2.04.69 1.33 0 2.35-.4 3.58-1.41.26-.21.53-.37.61-.37.13 0 1.22-.67 3.31-2.06.45-.29.97-.53 1.17-.53.17 0 .71-.25 1.16-.55.94-.64 2.53-1.4 2.92-1.4.15 0 .34-.16.42-.35.1-.22.46-.47.84-.62.38-.13.85-.41 1.06-.6.21-.18.6-.45.86-.58.64-.33 1.08-.83 1.6-1.83.44-.85.44-.85.42-20.33 0-19.47 0-19.47.36-20.06.26-.42.35-.84.37-1.57.02-.86.13-1.23.86-2.7.47-.93.84-1.8.84-1.93 0-.6 3.94-5.16 4.48-5.17.09 0 .37-.15.61-.34.24-.18.54-.29.67-.25.32.12.72-.04.72-.3 0-.49 2.26-2 3.2-2.14.42-.07.82-.29 1.26-.75.36-.34.89-.74 1.2-.87s.92-.51 1.38-.85c.45-.32 1.26-.85 1.8-1.15.53-.3 1.36-.82 1.84-1.16.49-.34.96-.62 1.06-.62.08 0 .48-.27.89-.61.4-.34 1.59-1.04 2.61-1.54 1.24-.6 1.99-1.09 2.23-1.41.21-.26.47-.49.59-.49.26 0 1.96-.89 2.52-1.33 1.43-1.08 3.78-2.4 4.3-2.4.11 0 .32-.18.47-.4.16-.26.42-.41.66-.41.23 0 .68-.24 1.01-.53 1.18-1.01 1.72-1.31 2.27-1.28.35.03.53-.03.53-.18 0-.36 1.07-1.28 1.64-1.39.27-.05.6-.25.69-.43.1-.16.52-.72.93-1.23.42-.5 1.02-1.49 1.36-2.18.6-1.27.6-1.27.47-9.45-.11-7.73-.13-8.19-.42-8.43-.16-.14-.42-.65-.55-1.12-.15-.48-.39-.9-.57-1.02-.36-.18-2.77-.32-3.39-.19m93.34.03c-.84.18-.92.26-1.2 1.2-.13.45-.39.96-.55 1.1-.29.24-.31.7-.42 8.43-.13 8.18-.13 8.18.47 9.45.34.69.94 1.68 1.36 2.18.41.51.83 1.07.93 1.23.09.18.42.38.69.43.57.11 1.64 1.03 1.64 1.39 0 .15.18.21.53.18.55-.03 1.09.27 2.27 1.28.33.29.78.53 1.01.53.24 0 .5.15.66.41.15.22.36.4.47.4.52 0 2.87 1.32 4.3 2.4.56.44 2.26 1.33 2.52 1.33.12 0 .38.23.59.49.24.32.99.81 2.23 1.41 1.02.5 2.21 1.2 2.61 1.54.41.34.81.61.89.61.1 0 .57.28 1.06.62.48.34 1.31.86 1.84 1.16.54.3 1.35.83 1.8 1.15.46.34 1.07.72 1.38.85s.84.53 1.2.87c.44.46.84.68 1.26.75.94.14 3.2 1.65 3.2 2.14 0 .26.4.42.72.3.13-.04.43.07.67.25.24.19.52.34.61.34.54.01 4.48 4.57 4.48 5.17 0 .13.37 1 .84 1.93.73 1.47.84 1.84.86 2.7.02.73.11 1.15.37 1.57.36.59.36.59.36 20.06-.02 19.48-.02 19.48.42 20.33.52 1 .96 1.5 1.6 1.83.28.13.65.4.86.58.21.19.68.47 1.06.6.38.15.74.4.84.62.08.19.27.35.42.35.39 0 1.98.76 2.92 1.4.45.3.99.55 1.16.55.2 0 .72.24 1.17.53 2.09 1.39 3.18 2.06 3.31 2.06.08 0 .35.16.61.37 1.23 1.01 2.25 1.41 3.58 1.41 1.28 0 1.28 0 2.04-.69.75-.7.75-.7.75-26.68 0-25.71-.1-31.08-.55-31.86-.1-.17-.34-.84-.54-1.45-1.02-3.25-1.13-3.55-1.52-4.33-.19-.39-.27-.76-.21-1.07.08-.37.03-.49-.23-.55-.3-.08-.55-.44-1.1-1.59-.14-.31-.48-.83-.78-1.13-.27-.31-1-1.32-1.62-2.24-.61-.92-1.33-1.83-1.57-2.03-.26-.17-.47-.47-.47-.63 0-.19-.18-.37-.48-.48-.33-.1-.52-.31-.59-.59-.14-.6-.32-.79-.82-.92-.25-.05-.7-.31-1.01-.55-.32-.26-.83-.59-1.13-.75-.31-.16-.94-.63-1.38-1.03-.97-.91-1.86-1.48-2.32-1.48-.52 0-1.18-.62-1.18-1.09 0-.37-.05-.4-.52-.32-.42.07-.76-.05-1.51-.5-2.02-1.2-3.32-2.17-3.32-2.5 0-.26-.08-.3-.44-.22-.55.13-2.9-1.12-4.65-2.47-.61-.45-1.26-.84-1.44-.84s-.84-.39-1.47-.86c-.64-.47-1.36-.94-1.61-1.05-.24-.1-.48-.31-.53-.44a.47.47 0 0 0-.39-.24c-.16 0-.37-.12-.49-.25-.09-.13-.35-.27-.53-.34-.2-.06-.89-.48-1.56-.94-1.41-.97-2.7-1.73-3.82-2.26-.44-.21-1.23-.72-1.77-1.14-.52-.4-1.04-.74-1.13-.74-.12 0-.36-.18-.57-.39-.19-.2-.63-.46-.97-.57-.36-.1-1.07-.5-1.61-.91-.55-.39-1.37-.91-1.84-1.15s-1.15-.66-1.51-.95c-.36-.3-.84-.57-1.07-.62-.23-.06-.76-.41-1.17-.76-.42-.37-1.2-.84-1.73-1.07-.54-.21-1.46-.71-2.04-1.12-.59-.4-1.45-.91-1.92-1.13a8 8 0 0 1-1.52-.99c-.65-.54-.78-.59-1.94-.63-.68-.04-1.51-.02-1.82.06m-46.51 69.96c-.51.09-2.38 1-2.51 1.21-.06.08-.37.29-.69.47-.33.18-1.11.67-1.74 1.06-.61.38-1.25.72-1.39.72-.15 0-.7.36-1.25.8-.53.44-1.39.99-1.91 1.23-.5.24-1.25.66-1.67.96-1.05.74-3.4 1.97-4.02 2.1-.27.07-.6.23-.71.36-.25.29-1.43 1.1-2.14 1.46-.29.14-.68.4-.86.58-.19.18-.58.44-.84.58-2.48 1.38-4.25 2.48-4.86 3.03-.75.69-.75.69-.56 1.35.2.66.85 1.21 2.16 1.91.28.13.83.5 1.23.81.39.31.88.55 1.07.55.2 0 .75.29 1.22.65s.9.65.99.65c.08 0 .24.11.35.26.12.14.58.42 1.04.61.44.21 1.25.67 1.78 1.04.54.37 1.07.68 1.2.68.11 0 .58.29 1.02.65.45.36.94.65 1.1.65.15 0 .44.18.65.4.21.23.49.41.6.41.52 0 1.17.48 1.22.92.03.37.13.46.5.46.24-.02.44.04.44.11 0 .06-.08.13-.18.13-.13 0-.13.06.01.24.15.18.28.2.49.08.54-.29 1.04-.18 1.85.41.44.31.89.57.99.57.11 0 .32.14.48.32s.72.57 1.2.84c.5.28 1.02.6 1.15.72.59.5 3 1.36 3.81 1.36s3.22-.86 3.81-1.36c.13-.12.65-.44 1.15-.72.48-.27 1.04-.66 1.2-.84s.37-.32.48-.32c.1 0 .55-.26.99-.57.81-.59 1.31-.7 1.85-.41.21.12.34.1.49-.08.14-.18.14-.24.01-.24-.1 0-.18-.07-.18-.13 0-.07.2-.13.46-.11.35 0 .45-.09.48-.46.05-.44.7-.92 1.22-.92.11 0 .39-.18.6-.41.21-.22.5-.4.65-.4.16 0 .65-.29 1.1-.65.44-.36.91-.65 1.02-.65.13 0 .66-.31 1.2-.68.53-.37 1.34-.83 1.78-1.04.46-.19.92-.47 1.04-.61.11-.15.27-.26.35-.26.09 0 .52-.29.99-.65s1.02-.65 1.22-.65c.19 0 .68-.24 1.07-.55.4-.31.95-.68 1.23-.81 1.31-.7 1.96-1.25 2.16-1.91.19-.66.19-.66-.56-1.35-.61-.55-2.38-1.65-4.86-3.03-.26-.14-.65-.4-.84-.58-.18-.18-.57-.44-.86-.58-.71-.36-1.89-1.17-2.14-1.46-.11-.13-.44-.29-.71-.36-.62-.13-2.97-1.36-4.02-2.1-.42-.3-1.17-.72-1.67-.96-.52-.24-1.38-.79-1.91-1.23-.55-.44-1.1-.8-1.23-.8-.28 0-2.47-1.29-3.76-2.22-1.44-1.03-3.49-1.54-5.03-1.24m-58.43 27.11c-1.05.26-8.2 4.08-9.71 5.2-.66.5-1.36.61-2.25.39-.44-.1-.45-.1-.36.37.09.34.04.54-.17.73-.29.24-1.67.94-1.88.94-.07 0-.44.26-.86.57-.41.3-.86.56-.99.56-.15 0-.66.23-1.13.49-.59.34-1.01.47-1.24.4-.26-.08-.29-.06-.13.07.38.24-.01.58-1.58 1.33-.77.37-1.8.94-2.29 1.25-.53.34-1.07.56-1.33.55-.26-.02-.5.06-.58.22-.23.41-3.23 2.14-5.54 3.23-.31.13-.93.47-1.38.73-.44.26-.92.48-1.07.48s-.39.13-.53.31c-.15.16-.59.34-.96.39-.41.05-.75.21-.84.37-.28.51-1.12 1.2-1.54 1.32-.23.04-.89.42-1.48.81-.73.47-1.25.69-1.62.69-.39 0-.69.15-1.12.55-.84.83-2.77 1.88-3.11 1.71-.43-.25-.61-.17-.61.24 0 .37-.65.84-2.32 1.7-.24.13-.42.31-.39.41.03.09-.16.61-.42 1.15-.5.97-.5.97-.49 5.18 0 2.76.08 4.47.2 4.94.11.41.31 1.24.42 1.87.27 1.36.83 3.22 1.15 3.85.13.26.23.57.23.7 0 .11.22.65.5 1.15.29.52.84 1.56 1.25 2.32.39.76.89 1.65 1.11 1.98.43.63.38 1.02-.12.89-.25-.07-.31 0-.31.29 0 .48.35.61.81.29.42-.29.81 0 1.67 1.25.27.4 1.26 1.49 2.18 2.43.93.94 1.8 1.89 1.95 2.15.16.28.48.51.84.6.34.1.89.49 1.38.98.44.43.92.81 1.1.81.41 0 2.74 1.26 3.01 1.63.12.16.34.31.51.31.16 0 .48.26.71.57.36.45.55.57.99.57.65 0 1.86.95 1.86 1.47 0 .34.34.4.84.13.28-.15.41-.1.86.4.33.36.68.59.93.59.39 0 1.7.84 1.96 1.25.06.11.42.27.78.37.37.1.84.35 1.07.58.21.21.45.39.55.39.08 0 .22.2.3.42.15.36.23.41.62.31.32-.07.58 0 .86.21.21.16.83.55 1.36.84.53.31 1.34.81 1.78 1.14.46.32 1.17.76 1.61.95.45.2 1.03.52 1.31.73.27.21.78.51 1.13.65.34.15 1.02.55 1.54.89.88.6 1.4.91 3.07 1.8.55.29.79.55.9.94.15.52.51.68.85.34.17-.18.61.07 2.38 1.35 1.26.92 1.25.9 1.76 1.02.25.05.73.34 1.09.66.34.31.89.65 1.22.73.34.1.92.47 1.31.83.39.35.87.68 1.08.69.39.05 1.46.62 1.98 1.06.18.16.67.43 1.09.61s1 .52 1.29.73 1.06.67 1.67 1.01c.63.34 1.46.86 1.85 1.16s.79.54.89.54.5.23.89.48c.83.57 2.56.7 3.4.26.69-.35 1.48-1.34 1.5-1.84 0-.25 0-4.15-.02-8.67-.02-8.25-.02-8.25-.63-9.56-.8-1.74-2.03-2.89-4.22-3.99-.85-.44-1.7-.96-1.88-1.15-.17-.2-.72-.57-1.21-.84-.49-.26-1.39-.75-2.03-1.11-.61-.34-1.57-.85-2.1-1.15-2.21-1.16-3.07-1.91-2.47-2.13.15-.07.15-.12 0-.28-.16-.16-.29-.18-.6-.03-.4.18-.53.13-2.28-.83-.26-.15-.62-.27-.76-.27-.16 0-.41-.18-.55-.41-.15-.23-.36-.41-.49-.41-.31 0-2.67-1.26-3.09-1.65-.2-.18-.31-.42-.26-.55.04-.16-.04-.23-.31-.23-.23 0-.57-.17-.78-.4-.24-.26-.55-.41-.87-.41-.28 0-.77-.16-1.07-.37-.31-.21-1.12-.68-1.79-1.05-.74-.41-1.31-.84-1.47-1.14-.2-.34-.44-.5-.89-.58-.75-.15-1.95-.75-2.63-1.31-.26-.23-1.08-.72-1.81-1.07-1.38-.7-1.59-.91-1.33-1.4.21-.35-.18-1.18-.55-1.18-.15 0-.47.16-.75.34-.53.39-.44.42-2.32-.65-.61-.37-1.39-.79-1.71-.97-.57-.32-1.93-1.7-1.93-1.98 0-.08.14-.42.32-.76.26-.48.31-.79.23-1.31-.13-.81-.57-.94-.52-.15.07.64-.39.83-.68.31-.31-.6.08-1.54 1.04-2.51.68-.66 1.42-1.15 3.35-2.12 4.15-2.11 4.9-2.5 5.74-3 .45-.28.94-.49 1.05-.49.29 0 3.37-1.75 4.3-2.44.35-.26 1.18-.73 1.83-1.04.65-.29 1.36-.7 1.59-.88.22-.17.68-.4 1-.51.32-.12.86-.38 1.18-.59.42-.27.7-.35 1.07-.27.42.08.5.05.6-.31.25-1.01 2.69-1.44 4.31-.76 1.36.57 2.92 1.62 2.92 1.96 0 .36.29.57.7.48.27-.03 1.49.67 1.75 1.01.09.13 1.2.74 2.09 1.17.73.35 2.64 1.6 3.56 2.36.41.33 1.43.97 2.27 1.43.84.47 2.16 1.25 2.92 1.73.76.49 1.67 1.02 2.02 1.18.36.17.8.46.98.65.16.2.85.64 1.53.94 1.33.65 1.85.98 2.86 1.83.37.31.94.75 1.24.98.62.42 1.58 1.73 1.58 2.14 0 .13.14.37.34.55 1.02.92 1.03 1.33 1.03 22.99 0 19.45 0 19.45.36 20.18.21.4.37.94.37 1.18 0 .26.08.6.18.78.1.17.28.74.41 1.24.13.51.45 1.37.73 1.9.38.81.45 1.07.32 1.41-.16.45-.07.63.5.83.15.05.75.82 1.35 1.71.58.91 1.11 1.64 1.2 1.64.06 0 .37.34.66.76.63.86 3.5 3.78 3.74 3.78.08 0 .46.27.85.61.37.34 1.15.86 1.73 1.15.58.3 1.09.6 1.13.65.09.13.73.47 2.44 1.32.58.29 1.21.66 1.41.84.27.26.48.31.85.22.31-.04.68 0 .96.15.24.11.84.28 1.33.34.48.07 1.07.21 1.33.34.24.11 1.26.28 2.28.36s1.93.19 2.03.24c.22.15 5.48.15 5.7 0 .1-.05 1.01-.16 2.03-.24s2.04-.25 2.28-.36c.26-.13.85-.27 1.33-.34.49-.06 1.09-.23 1.33-.34.28-.15.65-.19.96-.15.37.09.58.04.85-.22.2-.18.83-.55 1.41-.84 1.71-.85 2.35-1.19 2.44-1.32.04-.05.55-.35 1.13-.65.58-.29 1.36-.81 1.73-1.15.39-.34.77-.61.85-.61.24 0 3.11-2.92 3.74-3.78.29-.42.6-.76.66-.76.09 0 .62-.73 1.2-1.64.6-.89 1.2-1.66 1.35-1.71.57-.2.66-.38.5-.83-.13-.34-.06-.6.32-1.41.28-.53.6-1.39.73-1.9.13-.5.31-1.07.41-1.24.1-.18.18-.52.18-.78 0-.24.16-.78.37-1.18.36-.73.36-.73.36-20.18 0-21.66.01-22.07 1.03-22.99.2-.18.34-.42.34-.55 0-.41.96-1.72 1.58-2.14.3-.23.87-.67 1.24-.98 1.01-.85 1.53-1.18 2.86-1.83.68-.3 1.37-.74 1.53-.94.18-.19.62-.48.98-.65.35-.16 1.26-.69 2.02-1.18.76-.48 2.08-1.26 2.92-1.73.84-.46 1.86-1.1 2.27-1.43.92-.76 2.83-2.01 3.56-2.36.89-.43 2-1.04 2.09-1.17.26-.34 1.48-1.04 1.75-1.01.41.09.7-.12.7-.48 0-.34 1.56-1.39 2.92-1.96 1.62-.68 4.06-.25 4.31.76.1.36.18.39.6.31.37-.08.65 0 1.07.27.32.21.86.47 1.18.59.32.11.78.34 1 .51.23.18.94.59 1.59.88.65.31 1.48.78 1.83 1.04.93.69 4.01 2.44 4.3 2.44.11 0 .6.21 1.05.49.84.5 1.59.89 5.74 3 1.93.97 2.67 1.46 3.35 2.12.96.97 1.35 1.91 1.04 2.51-.29.52-.75.33-.68-.31.05-.79-.39-.66-.52.15-.08.52-.03.83.23 1.31.18.34.32.68.32.76 0 .28-1.36 1.66-1.93 1.98-.32.18-1.08.6-1.71.97-1.88 1.07-1.79 1.04-2.32.65-.28-.18-.6-.34-.75-.34-.37 0-.76.83-.55 1.18.26.49.05.7-1.33 1.4-.73.35-1.55.84-1.81 1.07-.68.56-1.88 1.16-2.63 1.31-.45.08-.69.24-.89.58-.16.3-.73.73-1.47 1.14-.67.37-1.48.84-1.79 1.05-.3.21-.79.37-1.07.37-.32 0-.63.15-.87.41-.21.23-.55.4-.78.4-.27 0-.35.07-.31.23.05.13-.06.37-.26.55-.42.39-2.78 1.65-3.09 1.65-.13 0-.34.18-.49.41-.14.23-.39.41-.55.41-.14 0-.48.12-.76.27-1.75.96-1.88 1.01-2.28.83-.31-.15-.44-.13-.6.03-.15.16-.15.21.01.28.59.22-.27.97-2.48 2.13-.53.3-1.47.81-2.1 1.15-.62.36-1.54.85-2.03 1.11-.49.27-1.04.64-1.21.84-.18.19-1.03.71-1.88 1.15-2.19 1.1-3.42 2.25-4.22 3.99-.61 1.31-.61 1.31-.63 9.56-.02 4.52-.02 8.42-.02 8.67.02.5.81 1.49 1.5 1.84.84.44 2.57.31 3.4-.26.39-.25.79-.48.89-.48s.5-.24.89-.54 1.23-.82 1.85-1.16c.63-.34 1.38-.8 1.67-1.01s.87-.55 1.29-.73.91-.45 1.09-.61c.52-.44 1.59-1.01 1.98-1.06.21-.01.69-.34 1.08-.69.39-.36.97-.73 1.31-.83.33-.08.88-.42 1.22-.73.36-.32.84-.61 1.09-.66.51-.12.5-.1 1.76-1.02 1.77-1.28 2.21-1.53 2.38-1.35.34.34.7.18.85-.34.11-.39.35-.65.9-.94 1.67-.89 2.19-1.2 3.07-1.8.52-.34 1.2-.74 1.54-.89.35-.14.86-.44 1.13-.65.28-.21.86-.53 1.31-.73.44-.19 1.17-.63 1.61-.95.45-.33 1.25-.83 1.78-1.14.53-.29 1.15-.68 1.36-.84.28-.21.54-.28.86-.21.39.1.47.05.62-.31.08-.22.22-.42.3-.42.1 0 .34-.18.55-.39.23-.23.7-.48 1.07-.58.36-.1.72-.26.78-.37.26-.41 1.57-1.25 1.96-1.25.25 0 .6-.23.93-.59.45-.5.58-.55.86-.4.5.27.84.21.84-.13 0-.52 1.21-1.47 1.86-1.47.44 0 .63-.12.99-.57.23-.31.55-.57.71-.57.17 0 .39-.15.51-.31.27-.37 2.6-1.63 3.01-1.63.18 0 .66-.38 1.1-.81.49-.49 1.04-.88 1.38-.98.36-.09.68-.32.84-.6.15-.26 1.02-1.21 1.95-2.15.92-.94 1.91-2.03 2.18-2.43.86-1.25 1.25-1.54 1.67-1.25.46.32.81.19.81-.29 0-.29-.06-.36-.31-.29-.5.13-.55-.26-.12-.89.22-.33.72-1.22 1.11-1.98.41-.76.96-1.8 1.25-2.32.28-.5.5-1.04.5-1.15 0-.13.1-.44.23-.7.32-.63.88-2.49 1.15-3.85.11-.63.31-1.46.42-1.87.12-.47.2-2.18.2-4.94.01-4.21.01-4.21-.49-5.18-.26-.54-.45-1.06-.42-1.15.03-.1-.15-.28-.39-.41-1.67-.86-2.32-1.33-2.32-1.7 0-.41-.18-.49-.61-.24-.34.17-2.27-.88-3.11-1.71-.43-.4-.73-.55-1.12-.55-.37 0-.89-.22-1.62-.69-.59-.39-1.25-.77-1.48-.81-.42-.12-1.26-.81-1.54-1.32-.09-.16-.43-.32-.84-.37-.37-.05-.81-.23-.96-.39-.14-.18-.38-.31-.53-.31s-.62-.22-1.07-.48c-.44-.26-1.07-.6-1.38-.73-2.31-1.09-5.31-2.82-5.54-3.23-.08-.16-.32-.24-.58-.22-.26.01-.8-.21-1.33-.55-.49-.31-1.52-.88-2.29-1.25-1.57-.75-1.96-1.09-1.58-1.33.16-.13.13-.15-.13-.07-.23.07-.65-.06-1.24-.4-.47-.26-.98-.49-1.13-.49-.13 0-.58-.26-.99-.56-.42-.31-.79-.57-.86-.57-.21 0-1.59-.7-1.88-.94-.21-.19-.26-.39-.17-.73.09-.47.08-.47-.36-.37-.89.22-1.59.11-2.25-.39-1.04-.76-4.1-2.48-7.78-4.34-1.78-.91-1.78-.91-3.99-.98-1.93-.06-2.3-.03-2.92.25-.4.17-.97.37-1.29.43-.31.05-.91.39-1.35.75-.42.36-.92.65-1.1.65s-.68.29-1.1.65c-.44.35-1.13.81-1.57 1-.42.18-.99.49-1.23.65-.25.18-.55.29-.67.24-.13-.05-.21.02-.19.16.01.23-3 2.24-4.28 2.84-.23.11-.62.34-.86.5-.31.21-.62.28-.94.21-.42-.08-.49-.03-.7.47-.17.39-.43.65-.95.89-.39.18-.93.55-1.17.81-.29.3-.63.49-.89.49-.44 0-.92.28-1.7.97-.26.25-.84.65-1.28.91s-1.06.63-1.38.83c-.32.19-.76.45-.99.56-.22.12-.76.44-1.2.73-.42.29-.89.54-1.03.54-.15 0-.44.18-.67.39-.83.79-5.1 3.5-5.52 3.5-.25 0-.6.17-.81.4-.22.23-.46.41-.56.41-.09 0-.27.14-.38.34-.12.18-.56.48-.98.66-.42.2-1.02.54-1.33.78-.84.65-1.45.83-1.97.55-.47-.24-.94-.15-.94.18 0 .11.14.24.32.29.52.13.39.41-.44.91-.43.26-.97.63-1.21.82-.75.59-1.39.73-1.75.41-.16-.15-.39-.23-.47-.16-.28.16-.21.4.18.55.32.11.32.14-.26.79-.68.75-1.14.96-1.46.7-.16-.13-.26-.13-.41.05-.14.16-.13.26.07.42.13.11.24.29.24.39 0 .24-1.15 1.36-1.65 1.62-.28.14-.37.32-.37.74 0 .31-.08.78-.18 1.06-.1.26-.28.74-.39 1.05-.44 1.2-.47 3.32-.54 25.44-.03 13.34-.13 23.14-.21 23.68-.19 1.12-.45 1.47-.97 1.34-.4-.1-.58.44-.23.67.1.04.17.21.17.34 0 .34-1.93 2.15-2.42 2.28-.22.05-.63.26-.87.44-.42.31-.68.34-2.79.34s-2.37-.03-2.79-.34c-.24-.18-.65-.39-.87-.44-.49-.13-2.42-1.94-2.42-2.28 0-.13.08-.3.17-.34.35-.23.17-.77-.23-.67-.52.13-.78-.22-.97-1.34-.08-.54-.18-10.34-.21-23.68-.07-22.12-.1-24.24-.54-25.44-.11-.31-.29-.79-.39-1.05-.1-.28-.18-.75-.18-1.06 0-.42-.09-.6-.37-.74-.5-.26-1.65-1.38-1.65-1.62 0-.1.11-.28.24-.39.2-.16.21-.26.07-.42-.15-.18-.25-.18-.41-.05-.32.26-.78.05-1.46-.7-.58-.65-.58-.68-.26-.79.39-.15.46-.39.18-.55-.08-.07-.31.01-.47.16-.36.32-1 .18-1.75-.41-.24-.19-.78-.56-1.2-.82-.84-.5-.97-.78-.45-.91.18-.05.32-.18.32-.29 0-.33-.47-.42-.94-.18-.52.28-1.13.1-1.97-.55-.31-.24-.91-.58-1.33-.78-.42-.18-.86-.48-.98-.66-.11-.2-.29-.34-.38-.34-.1 0-.34-.18-.56-.41-.21-.23-.56-.4-.81-.4-.42 0-4.69-2.71-5.52-3.5-.23-.21-.52-.39-.67-.39-.14 0-.61-.25-1.03-.54-.44-.29-.98-.61-1.2-.73-.23-.11-.67-.37-.99-.56-.32-.2-.94-.57-1.38-.83s-1-.66-1.28-.91c-.78-.69-1.26-.97-1.7-.97-.26 0-.6-.19-.89-.49-.24-.26-.78-.63-1.17-.81-.52-.24-.78-.5-.95-.89-.21-.5-.28-.55-.7-.47-.32.07-.63 0-.94-.21-.24-.16-.63-.39-.86-.5-1.28-.6-4.29-2.61-4.28-2.84.02-.14-.06-.21-.19-.16-.12.05-.42-.06-.67-.24-.24-.16-.81-.47-1.23-.65-.44-.19-1.13-.65-1.57-1-.42-.36-.92-.65-1.1-.65s-.68-.29-1.1-.65c-.44-.36-1.04-.7-1.36-.76-.31-.05-.86-.23-1.22-.39-.68-.33-3.95-.42-5.04-.16"/></g></svg>